<?xml version="1.0" encoding="utf-8"?>
<!-- Generator: Adobe Illustrator 17.1.0, SVG Export Plug-In . SVG Version: 6.00 Build 0)  -->
<!DOCTYPE svg PUBLIC "-//W3C//DTD SVG 1.1//EN" "http://www.w3.org/Graphics/SVG/1.1/DTD/svg11.dtd">
<svg version="1.1" id="Layer_1" xmlns="http://www.w3.org/2000/svg" xmlns:xlink="http://www.w3.org/1999/xlink" x="0px" y="0px"
	 viewBox="0 0 595.3 841.9" enable-background="new 0 0 595.3 841.9" xml:space="preserve">
<path fill="#588DE0" d="M547.5,454.2c-6.4,4.5-14.8,5.9-23.8,5.6c7.6-9,9.3-19.9,11-31.4c0.2-1.4-1.6-1.8-2.2-0.7
	c-5.3,9-14.3,14.6-23.6,20.4c-0.4-1.3-3.1-19.1-2.9-23.1c0.1-1.6-1.7-2.7-2.9-1.3c-3.8,4.3-8.3,7.5-10.4,13.1
	c-2.1,5.8-3.7,12-2.8,18.3c0.2,1.5,0.4,2.8,0.7,3.9c-2.3,0.8-4.7,1.4-7,2c-7.4,1.8-15.1,3.1-22.7,3.7c-2.8-2.5-5.7-4.8-8.9-7.1
	c-5.4-3.9-11.6-7.1-18-9.4c5.4-3.1,13.6-9,13.2-9.4c-9.1-9.1-16.7-23.2-23.1-38.7c4,4.4,19.6,8.2,18,5.5c-11-19-30.3-40.9-35.1-61.3
	c-4.3-18.6-6.9-33.8-7.8-39.3c-0.8-7.3-4.6-23.5-12.4-41.2c-7-15.8-17.3-32.8-31.8-46.1c-6.4-5.8-13.6-11-21.7-14.9
	c-1.9-3.8-3.2-7.8-4.3-12.4c-1.4-5.6-6.2-14-0.1-25.1c1.6-3-14.6,7.8-15.8,12.3c-5.1-8.8-12.3-16.3-19.9-20.3
	c-1.5-1.7-20.1-8.2-27.7-7.9c-2.8,0.1,18.8,26.8,10.1,39c-1.7,2.4-3.8,4.7-6.1,6.9c-0.5-2.7,3.2-9.5,4-11.4
	c0.5-1.2-6.1-1.5-13.6,6.3c-3.5,3.6-5.7,10.4-7.4,14.9c-11.4,4.7-22.2,10.3-32.1,17.2c-11.5,8-21.7,17.5-30.1,29.2
	c-2.7,3.8-5.2,7.8-7.4,11.9c-12.3,22.9-17,50.1-20.3,75.6c-2.6,22.3-18.5,52.5-31.6,69.3c-1.1,1.5,14.9-3,19.9-8.4
	c-4.8,16.2-11.3,31.4-20.1,39c-1.3,1.1,3.9,6.9,10.3,9.8c-3.1,2.5-6,5.5-8.8,8.3c-2.2,2.2-4.1,4.6-5.7,7.2c-5.5-0.7-10.9-1.7-16.2-3
	c-2.3-0.6-4.6-1.2-7-2c0.3-1.1,0.5-2.4,0.7-3.9c0.9-6.2-0.7-12.5-2.8-18.3c-2.1-5.7-6.6-8.8-10.4-13.1c-1.2-1.3-3-0.3-2.9,1.3
	c0.2,4-2.5,21.8-2.9,23.1c-9.3-5.8-18.3-11.3-23.6-20.4c-0.7-1.1-2.4-0.7-2.2,0.7c1.7,11.5,3.4,22.4,11,31.4
	c-9,0.3-17.4-1.1-23.8-5.6c-0.7-0.5-1.8,0-1.5,0.9c3,8.7,6.5,15.1,14.8,19.8c8.9,5,22.5,5.3,31.9,2c0.6-0.2,1.1-0.5,1.6-0.8
	c1.9,1.2,3.9,2.3,5.9,3.3c9.7,4.8,20.8,7,31.7,8.1c-0.1,0.1-0.1,0.2-0.2,0.3c-9.8,14.4-19.5,35.2-36.4,29.2
	c-2.1-0.8,1.9,24.7,30.4,33c-7.7,10.3-17.8,19.9-28.2,26.3c-2.3,1.4,11.8,12,17.1,11.1c-9.3,11.8-23.1,28.5-20.7,29.9
	c149,82.8,353.3,44.6,416.3-25c2-2.2-11.1-16.7-24.4-30.5c8.8,3.6,29.9-8.2,27.3-9.8c-6.3-3.9-13.5-4.9-19.8-9.2
	c-6.4-4.3-12.6-10-18.4-15.3c10.7-6.4,23.9-16.4,26.7-27.5c0.6-2.5-16.7,2.6-37.5-12.3c10.9-1.1,22.1-3.3,31.8-8.1
	c2-1,3.9-2.1,5.9-3.3c0.5,0.3,1,0.6,1.6,0.8c9.3,3.4,23,3,31.9-2c8.3-4.6,11.9-11.1,14.8-19.8C549.3,454.2,548.2,453.7,547.5,454.2z
	"/>
<circle fill="#FFFFFF" cx="284.4" cy="357.2" r="75.1"/>
<circle fill="#07264C" cx="284.4" cy="357.2" r="41.2"/>
<circle fill="#FFFFFF" cx="303" cy="342.8" r="14.1"/>
<path fill="#FFA25C" d="M235.6,559.5c-3-2.8-22.8,41.8-21.2,42.3c-3.5-1.1-18.1-35.9-24.5-45.8c-2-3-15.7,39.1-16.7,50.5
	c-3.2-3.7-17.1-25.6-17.7-24.9c-15.7,15.7-14.7,44.1-9.3,63.8c7.3,26.5,31.4,42.9,58.7,41.3c26.7-1.6,47-23.8,53.9-48.4
	C266.3,612.3,255.2,578,235.6,559.5z"/>
<path fill="#FFA25C" d="M340.5,635.7c6.9,24.5,27.2,46.8,53.9,48.4c27.3,1.6,51.4-14.8,58.7-41.3c5.4-19.7,6.5-48-9.3-63.8
	c-0.6-0.6-14.5,21.3-17.7,24.9c-1.1-11.4-14.8-53.6-16.7-50.5c-6.4,10-21,44.7-24.5,45.8c1.6-0.5-18.1-45.2-21.2-42.3
	C344.3,575.3,333.1,609.6,340.5,635.7z"/>
<path fill="#FFA25C" d="M220.5,222c-9.6-8.3-16.2-18.9-12.9-30.8c1.5-5.4,7-29.7,11.8-35.7c0.9-1.1-22.6,10-31.4,16.4
	c-12.3,8.8-25.5,20.3-29.4,31.9c-7.3,21.5,1.1,37.6,17.3,53.3c2.2,2.1,4.6,4.1,7.1,6c2.2-4.1,4.6-8.1,7.4-11.9
	C198.8,239.6,209.1,230,220.5,222z"/>
<path fill="#07264C" d="M382.2,423.5C367,440,330.7,458,299.8,462.3c-4.5,0.6-8.9,1-13.1,1c-2.5,0-5.1-0.1-7.8-0.3
	c-1.6-0.1-3.3-0.2-5-0.4c-9.4-1-19.4-2.9-29.3-5.6c-24.3-6.6-47.5-17.9-58.2-30.5c-2.4,5.9,52.5,85.1,98.8,85.1
	S384.1,428.7,382.2,423.5z"/>
<path fill="#FFA25C" d="M386.8,263.7c2.9-2.2,6.6-5,8.2-6.6c16.3-15.7,24.6-31.9,17.3-53.3c-3.9-11.6-17.1-23.1-29.4-31.9
	c-8.8-6.3-32.3-17.5-31.4-16.4c4.8,6,10.3,30.3,11.8,35.7c2.7,9.9-1.4,18.9-8.4,26.4C369.5,230.9,379.8,247.9,386.8,263.7z"/>
<g>
	<path fill="#FFFFFF" d="M252.7,486.5c2,2.4,15.3-13.8,17.9-17.8c1.2-1.8,2.4-3.9,3.3-6.1c-9.4-1-19.4-2.9-29.3-5.6
		C244.5,466,245.8,478.6,252.7,486.5z"/>
	<path fill="#FFFFFF" d="M286.7,463.3c-2.5,0-5.1-0.1-7.8-0.3c1.2,6.1,3.8,13.8,9.1,18.2c1.7,1.4,9.1-11.7,10.5-14.8
		c0.5-1.2,1-2.6,1.4-4C295.3,463,290.9,463.3,286.7,463.3z"/>
</g>
</svg>
